<svg id="Layer_1" data-name="Layer 1" xmlns="http://www.w3.org/2000/svg" xmlns:xlink="http://www.w3.org/1999/xlink" viewBox="0 0 350.5 78"><defs><style>.cls-1,.cls-2{stroke:#9bc2e6;stroke-miterlimit:10;}.cls-1{fill:url(#linear-gradient);}.cls-2{fill:#f2f2f2;}.cls-3{fill:#e6e6e6;}</style><linearGradient id="linear-gradient" x1="2.88" y1="7" x2="66.89" y2="71" gradientUnits="userSpaceOnUse"><stop offset="0" stop-color="#9bc2e6"/><stop offset="1" stop-color="#add2e6"/></linearGradient></defs><title>SparkleCSS_Logo_InCol_Rev_v02</title><rect class="cls-1" x="0.5" y="4.7" width="68.77" height="68.61" rx="8" ry="8"/><path class="cls-2" d="M820.46,273.33a34.91,34.91,0,0,1-11.09-1.8,27.07,27.07,0,0,1-9.28-5.15l4.3-7.2a37,37,0,0,0,8,4.42,21.59,21.59,0,0,0,7.78,1.5,9.85,9.85,0,0,0,5.41-1.29,4.14,4.14,0,0,0,2-3.69,3.68,3.68,0,0,0-2.32-3.52,50.51,50.51,0,0,0-7.56-2.57q-4.38-1.2-7.48-2.32a19.17,19.17,0,0,1-5-2.53,8.65,8.65,0,0,1-2.75-3.26,10.38,10.38,0,0,1-.86-4.42,13.94,13.94,0,0,1,1.33-6.17,13.43,13.43,0,0,1,3.74-4.67,17.31,17.31,0,0,1,5.63-3,22.91,22.91,0,0,1,7-1,30.2,30.2,0,0,1,9.5,1.46,23.19,23.19,0,0,1,8.12,4.72l-4.64,6.95a27,27,0,0,0-6.66-3.77,18.26,18.26,0,0,0-6.4-1.2,9.29,9.29,0,0,0-4.9,1.2,4.17,4.17,0,0,0-2,3.86,3.71,3.71,0,0,0,.47,2,4.13,4.13,0,0,0,1.5,1.37,14.61,14.61,0,0,0,2.71,1.16q1.68.56,4.17,1.16,4.64,1.2,8,2.4a21.74,21.74,0,0,1,5.42,2.74,9.81,9.81,0,0,1,3.09,3.56,10.93,10.93,0,0,1,1,4.85,12.49,12.49,0,0,1-4.9,10.42Q828.88,273.33,820.46,273.33Z" transform="translate(-784.5 -211)"/><path class="cls-3" d="M897.45,238.66a2.3,2.3,0,0,1-.78.86,2.05,2.05,0,0,1-1.07.26,3.46,3.46,0,0,1-1.59-.45q-.86-.45-2-1a17.52,17.52,0,0,0-2.73-1,13.39,13.39,0,0,0-3.68-.45,11.1,11.1,0,0,0-3.11.41,7,7,0,0,0-2.36,1.16,5.25,5.25,0,0,0-1.48,1.76,4.68,4.68,0,0,0-.51,2.16,3.65,3.65,0,0,0,.94,2.57,8.2,8.2,0,0,0,2.49,1.78,24.15,24.15,0,0,0,3.52,1.35q2,.6,4,1.29a41.22,41.22,0,0,1,4,1.59,15.19,15.19,0,0,1,3.52,2.21,10,10,0,0,1,2.49,3.17,9.93,9.93,0,0,1,.95,4.52,14.35,14.35,0,0,1-1.12,5.7,12.82,12.82,0,0,1-3.27,4.54,15,15,0,0,1-5.35,3,23.07,23.07,0,0,1-7.33,1.07,23.36,23.36,0,0,1-4.4-.41,25.3,25.3,0,0,1-4-1.11,21.46,21.46,0,0,1-3.57-1.69,18.71,18.71,0,0,1-2.94-2.14l2.15-3.52a3,3,0,0,1,1-1,2.67,2.67,0,0,1,1.44-.36,3.22,3.22,0,0,1,1.78.58q.88.58,2.07,1.27a16.34,16.34,0,0,0,2.86,1.26,12.91,12.91,0,0,0,4.17.58,11.49,11.49,0,0,0,3.57-.49,7.16,7.16,0,0,0,2.49-1.35,5.45,5.45,0,0,0,1.46-2,5.83,5.83,0,0,0,.47-2.34,4,4,0,0,0-.95-2.74,8,8,0,0,0-2.51-1.84,23.21,23.21,0,0,0-3.57-1.37q-2-.6-4.06-1.29a42.51,42.51,0,0,1-4.06-1.59,13.92,13.92,0,0,1-3.57-2.29,10.45,10.45,0,0,1-2.52-3.39,11.31,11.31,0,0,1-.95-4.87,12,12,0,0,1,4.15-9.13,15.08,15.08,0,0,1,5-2.85,20.77,20.77,0,0,1,6.9-1.05,21.85,21.85,0,0,1,8,1.42,17.49,17.49,0,0,1,6.06,3.86Z" transform="translate(-784.5 -211)"/><path class="cls-3" d="M917.57,237.07a23.12,23.12,0,0,1,6.25-5.19,16.32,16.32,0,0,1,8.14-2,15,15,0,0,1,6.7,1.48,14.43,14.43,0,0,1,5.16,4.31,20.85,20.85,0,0,1,3.33,7,35.26,35.26,0,0,1,1.18,9.58,30,30,0,0,1-1.31,9,22,22,0,0,1-3.76,7.25,17.08,17.08,0,0,1-13.8,6.54,15.55,15.55,0,0,1-6.55-1.24,17,17,0,0,1-4.88-3.43V289H908.8V230.72h5.59a2.27,2.27,0,0,1,2.41,1.76Zm.47,26.41a11.09,11.09,0,0,0,4.23,3.5,12.54,12.54,0,0,0,5.09,1,10,10,0,0,0,8.44-3.95q3-3.94,3-11.75a29.74,29.74,0,0,0-.69-6.88,13.32,13.32,0,0,0-2-4.65,7.63,7.63,0,0,0-3.14-2.62,10.25,10.25,0,0,0-4.17-.81,11.68,11.68,0,0,0-6.08,1.52A17.25,17.25,0,0,0,918,243.2Z" transform="translate(-784.5 -211)"/><path class="cls-3" d="M956.25,236.81a25.13,25.13,0,0,1,17.71-6.9,17.43,17.43,0,0,1,6.73,1.22,13.48,13.48,0,0,1,4.94,3.45,15.25,15.25,0,0,1,3.05,5.3,20.81,20.81,0,0,1,1.05,6.8v27.79H985.6a4,4,0,0,1-2-.41,3.13,3.13,0,0,1-1.16-1.65l-.9-3.56a40.53,40.53,0,0,1-3.31,2.68,20.81,20.81,0,0,1-3.37,2,16.57,16.57,0,0,1-3.74,1.22,22.1,22.1,0,0,1-4.41.41,16.35,16.35,0,0,1-5-.73,10.9,10.9,0,0,1-4-2.21,10.43,10.43,0,0,1-2.64-3.67,12.63,12.63,0,0,1-1-5.15,9.93,9.93,0,0,1,1.35-4.93,12.36,12.36,0,0,1,4.47-4.31,29.07,29.07,0,0,1,8.21-3.15,59.83,59.83,0,0,1,12.57-1.41v-2.92q0-4.72-2-7a7.45,7.45,0,0,0-5.93-2.32,13.05,13.05,0,0,0-4.47.66,20.18,20.18,0,0,0-3.14,1.44q-1.33.77-2.36,1.44a4,4,0,0,1-2.19.66A2.62,2.62,0,0,1,959,241a4.06,4.06,0,0,1-1.1-1.22Zm24.5,18.52a58.71,58.71,0,0,0-8.34.79,23.74,23.74,0,0,0-5.5,1.59,7.26,7.26,0,0,0-3,2.29,5,5,0,0,0-.92,2.92,6.36,6.36,0,0,0,.5,2.64,4.78,4.78,0,0,0,1.37,1.8,5.6,5.6,0,0,0,2.06,1,9.9,9.9,0,0,0,2.6.32,13.31,13.31,0,0,0,6.21-1.35,19.4,19.4,0,0,0,5.05-3.92Z" transform="translate(-784.5 -211)"/><path class="cls-3" d="M1009.24,238.83a19.36,19.36,0,0,1,5-6.54,10.74,10.74,0,0,1,7-2.38,10.61,10.61,0,0,1,2.66.32,7.52,7.52,0,0,1,2.24,1l-.65,6.95a1.72,1.72,0,0,1-.54,1,1.55,1.55,0,0,1-1,.28,10.42,10.42,0,0,1-1.85-.24,13.18,13.18,0,0,0-2.54-.24,9.69,9.69,0,0,0-3.42.56,8.27,8.27,0,0,0-2.67,1.63,11,11,0,0,0-2.08,2.62,25.33,25.33,0,0,0-1.68,3.52v27.19h-9.24V230.72h5.37a2.93,2.93,0,0,1,2,.54,3.3,3.3,0,0,1,.77,1.87Z" transform="translate(-784.5 -211)"/><path class="cls-3" d="M1041.48,211v36.79h2a4,4,0,0,0,1.55-.26,3.42,3.42,0,0,0,1.25-1.07l12.29-14a4.57,4.57,0,0,1,1.42-1.29,4,4,0,0,1,2-.43h8.38l-14.78,16.64a11.24,11.24,0,0,1-2.84,2.66,8,8,0,0,1,1.5,1.35,15,15,0,0,1,1.25,1.69l15.77,21.4H1063a4.57,4.57,0,0,1-1.91-.36,3.3,3.3,0,0,1-1.4-1.35L1047,255.6a3.23,3.23,0,0,0-1.29-1.26,5.11,5.11,0,0,0-1.93-.28h-2.28v20.41h-9.24V211Z" transform="translate(-784.5 -211)"/><path class="cls-3" d="M1086.52,211v63.46h-9.24V211Z" transform="translate(-784.5 -211)"/><path class="cls-3" d="M1104.65,253.32a21.88,21.88,0,0,0,1.16,6.45,13.32,13.32,0,0,0,2.64,4.52,10.27,10.27,0,0,0,4,2.68,14.29,14.29,0,0,0,5.14.88,15.67,15.67,0,0,0,4.69-.62,22,22,0,0,0,3.44-1.37q1.46-.75,2.49-1.37a3.73,3.73,0,0,1,1.89-.62,2,2,0,0,1,1.72.86l2.62,3.39a16.67,16.67,0,0,1-3.7,3.26,21.6,21.6,0,0,1-4.38,2.17,24.78,24.78,0,0,1-4.77,1.2,32.43,32.43,0,0,1-4.77.37,23,23,0,0,1-8.44-1.52,18.77,18.77,0,0,1-6.75-4.48,20.67,20.67,0,0,1-4.47-7.33,29.06,29.06,0,0,1-1.61-10.08,24.55,24.55,0,0,1,1.44-8.49,20.25,20.25,0,0,1,4.13-6.86,19.37,19.37,0,0,1,6.53-4.61,21.38,21.38,0,0,1,8.7-1.69,20.88,20.88,0,0,1,7.48,1.31,16.42,16.42,0,0,1,5.93,3.84,17.65,17.65,0,0,1,3.89,6.2,23.32,23.32,0,0,1,1.4,8.34,5.89,5.89,0,0,1-.47,2.87,1.9,1.9,0,0,1-1.72.73Zm22-5.66a13.5,13.5,0,0,0-.67-4.31,10.08,10.08,0,0,0-2-3.47,8.92,8.92,0,0,0-3.2-2.32,10.91,10.91,0,0,0-4.41-.84,10.71,10.71,0,0,0-7.91,2.87,13.92,13.92,0,0,0-3.65,8.06Z" transform="translate(-784.5 -211)"/></svg>