<svg id="Layer_1" data-name="Layer 1" xmlns="http://www.w3.org/2000/svg" viewBox="0 0 292 100"><defs><style>.cls-1{fill:#9bc2cf;}.cls-2{fill:#add8e6;}.cls-3{font-size:58.51px;fill:#1a1a1a;font-family:Rockwell, Rockwell;}.cls-4{letter-spacing:-0.02em;}</style></defs><title>Sparkle_Logo_InCol</title><path class="cls-1" d="M398,466.81h0a50.84,50.84,0,0,0-6.1,13.06,51.41,51.41,0,0,0-1.61,7.14c-.22,1.45-.38,2.92-.48,4.4q-.11,1.71-.11,3.44c0,1.17,0,2.32.12,3.45q-1.45-1.68-2.72-3.45A50.7,50.7,0,0,1,378.58,475h0a51.87,51.87,0,0,1,1.23-25A50.38,50.38,0,0,1,398,466.81Z" transform="translate(-354 -450)"/><path class="cls-2" d="M388.22,494.07a49.33,49.33,0,0,1-8.33-19.3l-.08-.4h0a50.62,50.62,0,0,1,.81-22.37,49.19,49.19,0,0,1,15.83,14.83,52.27,52.27,0,0,0-5.77,12.65,53.12,53.12,0,0,0-1.65,7.34c-.23,1.53-.4,3-.49,4.52-.07,1-.1,2-.11,3Z" transform="translate(-354 -450)"/><path class="cls-1" d="M401.43,503.21q-1.64,1.47-3.38,2.76a49.92,49.92,0,0,1-6.09,3.88,49.12,49.12,0,0,1-38,3.6,50.68,50.68,0,0,1,16.51-18.59h0a49.21,49.21,0,0,0,12.83,6.2,48,48,0,0,0,7,1.65q2.13.34,4.31.48c1.12.09,2.24.12,3.39.12S400.31,503.29,401.43,503.21Z" transform="translate(-354 -450)"/><path class="cls-2" d="M397.26,504.89a48.74,48.74,0,0,1-5.93,3.77,47.81,47.81,0,0,1-35.37,4,49.33,49.33,0,0,1,14.56-16.13,50.48,50.48,0,0,0,12.43,5.87,49.74,49.74,0,0,0,7.19,1.69c1.47.24,3,.4,4.44.5.95.07,1.92.11,3,.12Z" transform="translate(-354 -450)"/><path class="cls-1" d="M406.22,501.67q1.45,1.68,2.72,3.45A50.91,50.91,0,0,1,417.51,525h0a51.83,51.83,0,0,1-1.23,25A50.41,50.41,0,0,1,398,533.18h0a50.86,50.86,0,0,0,7.7-20.2c.23-1.44.38-2.91.48-4.4.08-1.13.12-2.29.12-3.45S406.3,502.82,406.22,501.67Z" transform="translate(-354 -450)"/><path class="cls-2" d="M415.47,548a49.21,49.21,0,0,1-15.83-14.83,52.23,52.23,0,0,0,7.42-20c.23-1.48.4-3,.49-4.52.07-1,.11-2,.12-3l.21.29a49.56,49.56,0,0,1,8.33,19.3l.08.4A50.64,50.64,0,0,1,415.47,548Z" transform="translate(-354 -450)"/><path class="cls-1" d="M442.09,486.54a50.61,50.61,0,0,1-16.51,18.58h0a49,49,0,0,0-19.82-7.85q-2.13-.34-4.31-.48c-1.12-.08-2.25-.12-3.39-.12s-2.27,0-3.38.12q1.65-1.48,3.39-2.77a49.62,49.62,0,0,1,6.08-3.87,49.12,49.12,0,0,1,38-3.6Z" transform="translate(-354 -450)"/><path class="cls-2" d="M432.32,497.76a49,49,0,0,1-6.77,5.75,50.32,50.32,0,0,0-19.6-7.56c-1.48-.23-3-.4-4.43-.5-1-.07-2-.11-3-.12l.28-.21a48.58,48.58,0,0,1,5.92-3.77,47.82,47.82,0,0,1,35.37-4A49.36,49.36,0,0,1,432.32,497.76Z" transform="translate(-354 -450)"/><path class="cls-1" d="M417.51,475h0a48.88,48.88,0,0,0-13.38,4.84,49.53,49.53,0,0,0-6.09,3.89c-1.16.87-2.3,1.79-3.39,2.77q-1.26,1.13-2.47,2.35c-.81.83-1.58,1.66-2.31,2.53q.14-2.23.47-4.4a51.38,51.38,0,0,1,1.61-7.13A50.86,50.86,0,0,1,398,466.82h0A50.34,50.34,0,0,1,416.28,450,51.91,51.91,0,0,1,417.51,475Z" transform="translate(-354 -450)"/><path class="cls-2" d="M416.37,473.9a50.2,50.2,0,0,0-12.86,4.79,50.92,50.92,0,0,0-6.26,4c-1.23.91-2.4,1.87-3.48,2.84-.73.65-1.46,1.34-2.17,2l.05-.35a50.22,50.22,0,0,1,1.57-6.94,49.49,49.49,0,0,1,5.93-12.71l.22-.34a49.56,49.56,0,0,1,5.9-7.28,48.64,48.64,0,0,1,10.2-8A50.67,50.67,0,0,1,416.37,473.9Z" transform="translate(-354 -450)"/><path class="cls-1" d="M394.65,503.21q-2.18-.14-4.31-.48a48.82,48.82,0,0,1-19.82-7.85A50.66,50.66,0,0,1,354,476.28,49.17,49.17,0,0,1,378.57,475h0a51.18,51.18,0,0,0,4.77,13.62,49.89,49.89,0,0,0,3.81,6.21q1.26,1.78,2.72,3.45c.73.87,1.5,1.7,2.31,2.53S393.8,502.46,394.65,503.21Z" transform="translate(-354 -450)"/><path class="cls-2" d="M390.54,501.39a47.49,47.49,0,0,1-19.29-7.64A49.39,49.39,0,0,1,356,477.11a48,48,0,0,1,21.49-.92,52.51,52.51,0,0,0,4.71,13.1,51.41,51.41,0,0,0,3.91,6.38c.87,1.22,1.81,2.42,2.79,3.55.62.73,1.28,1.47,2,2.22Z" transform="translate(-354 -450)"/><path class="cls-1" d="M406.23,508.58q-.14,2.23-.47,4.4a51.71,51.71,0,0,1-1.62,7.14A51,51,0,0,1,398,533.18h0A50.3,50.3,0,0,1,379.8,550a51.94,51.94,0,0,1-1.23-25h0A48.92,48.92,0,0,0,398,516.23q1.74-1.29,3.39-2.77c.84-.74,1.67-1.54,2.48-2.35S405.49,509.44,406.23,508.58Z" transform="translate(-354 -450)"/><path class="cls-2" d="M390.82,540a48.63,48.63,0,0,1-10.21,8,50.68,50.68,0,0,1-.9-21.9,50.24,50.24,0,0,0,19.11-8.78c1.19-.88,2.36-1.83,3.48-2.84.72-.64,1.46-1.33,2.19-2.06l-.05.36a50.51,50.51,0,0,1-1.58,6.94,49.67,49.67,0,0,1-5.93,12.71l-.2.3A49.59,49.59,0,0,1,390.82,540Z" transform="translate(-354 -450)"/><path class="cls-1" d="M442.08,523.72A49.09,49.09,0,0,1,417.51,525h0a51,51,0,0,0-8.56-19.83q-1.27-1.78-2.72-3.45c-.74-.87-1.51-1.7-2.32-2.53s-1.63-1.61-2.48-2.35q2.19.14,4.32.48a48.85,48.85,0,0,1,19.82,7.85A50.54,50.54,0,0,1,442.08,523.72Z" transform="translate(-354 -450)"/><path class="cls-2" d="M440.12,522.89a47.91,47.91,0,0,1-21.5.91A52.33,52.33,0,0,0,410,504.33c-.88-1.23-1.82-2.42-2.79-3.55-.64-.75-1.3-1.49-2-2.23l.35.05a47.53,47.53,0,0,1,19.28,7.64A49.28,49.28,0,0,1,440.12,522.89Z" transform="translate(-354 -450)"/><text class="cls-3" transform="translate(93.94 66.56) scale(0.98 1)">spa<tspan class="cls-4" x="94.42" y="0">r</tspan><tspan x="117.65" y="0">kle</tspan></text></svg>