<svg id="Layer_1" data-name="Layer 1" xmlns="http://www.w3.org/2000/svg" xmlns:xlink="http://www.w3.org/1999/xlink" viewBox="0 0 69.77 69.61"><defs><style>.cls-1,.cls-2{stroke:#9bc2e6;stroke-miterlimit:10;}.cls-1{fill:url(#linear-gradient);}.cls-2{fill:#f2f2f2;}</style><linearGradient id="linear-gradient" x1="2.88" y1="2.8" x2="66.89" y2="66.81" gradientUnits="userSpaceOnUse"><stop offset="0" stop-color="#9bc2e6"/><stop offset="1" stop-color="#add2e6"/></linearGradient></defs><title>SPK_Logo_v02</title><rect class="cls-1" x="0.5" y="0.5" width="68.77" height="68.61" rx="8" ry="8"/><path class="cls-2" d="M820.46,273.33a34.91,34.91,0,0,1-11.09-1.8,27.07,27.07,0,0,1-9.28-5.15l4.3-7.2a37,37,0,0,0,8,4.42,21.59,21.59,0,0,0,7.78,1.5,9.85,9.85,0,0,0,5.41-1.29,4.14,4.14,0,0,0,2-3.69,3.68,3.68,0,0,0-2.32-3.52,50.51,50.51,0,0,0-7.56-2.57q-4.38-1.2-7.48-2.32a19.17,19.17,0,0,1-5-2.53,8.65,8.65,0,0,1-2.75-3.26,10.38,10.38,0,0,1-.86-4.42,13.94,13.94,0,0,1,1.33-6.17,13.43,13.43,0,0,1,3.74-4.67,17.31,17.31,0,0,1,5.63-3,22.91,22.91,0,0,1,7-1,30.2,30.2,0,0,1,9.5,1.46,23.19,23.19,0,0,1,8.12,4.72l-4.64,6.95a27,27,0,0,0-6.66-3.77,18.26,18.26,0,0,0-6.4-1.2,9.29,9.29,0,0,0-4.9,1.2,4.17,4.17,0,0,0-2,3.86,3.71,3.71,0,0,0,.47,2,4.13,4.13,0,0,0,1.5,1.37,14.61,14.61,0,0,0,2.71,1.16q1.68.56,4.17,1.16,4.64,1.2,8,2.4a21.74,21.74,0,0,1,5.42,2.74,9.81,9.81,0,0,1,3.09,3.56,10.93,10.93,0,0,1,1,4.85,12.49,12.49,0,0,1-4.9,10.42Q828.88,273.33,820.46,273.33Z" transform="translate(-784.5 -215.2)"/></svg>